<svg width="596" height="596" viewBox="0 0 596 596" fill="none" xmlns="http://www.w3.org/2000/svg">
<g filter="url(#filter0_n_3_52)">
<path fill-rule="evenodd" clip-rule="evenodd" d="M5.72007 239.608C13.8393 198.79 30.3857 160.322 54.0929 126.572L152.857 357.673C164.722 386.317 184.814 410.799 210.593 428.024C236.372 445.249 266.68 454.442 297.684 454.442V595.367C238.807 595.367 181.253 577.908 132.3 545.198C83.3458 512.489 45.1909 465.997 22.66 411.602C0.129011 357.208 -5.76611 297.353 5.72007 239.608Z" fill="#66F7A5"/>
<path d="M97.3131 77.5311C93.869 80.6657 90.4934 83.8859 87.1896 87.1896C84.3949 89.9844 81.6599 92.8306 78.986 95.7262L147.35 253.263C150.523 242.524 154.83 232.183 160.18 222.41C163.233 216.833 166.626 211.441 170.342 206.265L110.578 66.152C106.053 69.8085 101.629 73.6027 97.3131 77.5311Z" fill="#66F7A5"/>
<path d="M454.442 297.684C454.442 266.68 445.249 236.372 428.024 210.593C425.217 206.393 422.218 202.343 419.039 198.456H301.768C244.71 198.456 198.456 244.71 198.456 301.768V301.768H454.442V297.684Z" fill="#66F7A5"/>
<path d="M595.367 297.684C595.367 238.807 577.908 181.253 545.198 132.3C512.489 83.3457 465.997 45.1909 411.602 22.6599C357.208 0.128983 297.353 -5.76615 239.608 5.72004C215.541 10.5074 192.29 18.2247 170.342 28.6121C163.179 32.002 156.155 35.6763 149.286 39.626C147.493 40.6576 145.709 41.7079 143.937 42.7769L198.456 176.328C200.765 174.439 203.126 172.619 205.534 170.87C210.838 167.015 216.373 163.502 222.105 160.348C236.099 152.646 251.264 147.087 267.102 143.937C297.51 137.888 329.029 140.993 357.673 152.857C371.906 158.753 385.113 166.681 396.911 176.328C404.987 182.931 412.404 190.341 419.039 198.456C422.218 202.343 425.217 206.393 428.024 210.593C445.249 236.372 454.442 266.68 454.442 297.684V301.768H595.367V297.684Z" fill="#66F7A5"/>
<path d="M297.684 454.442V595.367H576.845L502.072 454.442H297.684Z" fill="#66F7A5"/>
</g>
<defs>
<filter id="filter0_n_3_52" x="3.05176e-05" y="0" width="595.367" height="595.367" filterUnits="userSpaceOnUse" color-interpolation-filters="sRGB">
<feFlood flood-opacity="0" result="BackgroundImageFix"/>
<feBlend mode="normal" in="SourceGraphic" in2="BackgroundImageFix" result="shape"/>
<feTurbulence type="fractalNoise" baseFrequency="2 2" stitchTiles="stitch" numOctaves="3" result="noise" seed="5729" />
<feColorMatrix in="noise" type="luminanceToAlpha" result="alphaNoise" />
<feComponentTransfer in="alphaNoise" result="coloredNoise1">
<feFuncA type="discrete" tableValues="1 1 1 1 1 1 1 1 1 1 1 1 1 1 1 1 1 1 1 1 1 1 1 1 1 1 1 1 1 1 1 1 1 1 1 1 1 1 1 1 1 1 1 1 1 1 1 1 1 1 1 0 0 0 0 0 0 0 0 0 0 0 0 0 0 0 0 0 0 0 0 0 0 0 0 0 0 0 0 0 0 0 0 0 0 0 0 0 0 0 0 0 0 0 0 0 0 0 0 0 "/>
</feComponentTransfer>
<feComposite operator="in" in2="shape" in="coloredNoise1" result="noise1Clipped" />
<feFlood flood-color="rgba(0, 0, 0, 0.5)" result="color1Flood" />
<feComposite operator="in" in2="noise1Clipped" in="color1Flood" result="color1" />
<feMerge result="effect1_noise_3_52">
<feMergeNode in="shape" />
<feMergeNode in="color1" />
</feMerge>
</filter>
</defs>
</svg>
